<svg width="119" height="55" viewBox="0 0 119 55" fill="none" xmlns="http://www.w3.org/2000/svg">
<path d="M119 31.6969V29.3829H108.656C105.915 24.2673 102.353 19.5619 98.0472 15.4445C87.6303 5.48499 73.9409 0 59.5 0C38.2783 0 19.7282 11.8395 10.3376 29.3829H0V31.6969H9.16841C8.77163 32.5299 8.39393 33.374 8.03842 34.2297H0V36.5437H7.13856C5.39971 41.3257 4.30145 46.4207 3.94465 51.7296C3.14489 51.3565 2.38175 50.8749 1.6777 50.2833L0.180592 52.0525C4.61233 55.777 10.9411 55.9717 15.5704 52.6354C19.9451 55.7881 25.8371 55.7881 30.2118 52.6354C34.5868 55.7883 40.4785 55.7881 44.8529 52.6354C49.2279 55.7883 55.1199 55.7881 59.4943 52.6354C63.869 55.7881 69.761 55.7881 74.1357 52.6354C78.5104 55.7881 84.4024 55.7881 88.7771 52.6354C90.9646 54.2117 93.5313 54.9998 96.0978 54.9998C98.6643 54.9998 101.231 54.2117 103.419 52.6356C108.048 55.9714 114.376 55.7768 118.808 52.0525L117.311 50.2833C116.611 50.8716 115.853 51.3506 115.059 51.7226C114.706 46.4824 113.619 41.3826 111.858 36.5437H118.999V34.2297H110.956C110.601 33.3761 110.225 32.5317 109.827 31.6969H119ZM103.419 49.6541L102.67 50.283C98.8624 53.4838 93.334 53.4838 89.5261 50.283L88.7776 49.6541L88.0292 50.283C84.2213 53.4838 78.6928 53.4838 74.8849 50.283L74.1365 49.6541L73.3881 50.283C69.5801 53.4838 64.0517 53.4838 60.2438 50.283L59.4954 49.6541L58.7469 50.283C54.9393 53.4838 49.4111 53.4838 45.6026 50.283L44.8542 49.6541L44.1058 50.283C40.2981 53.4838 34.7697 53.4838 30.9618 50.283L30.2133 49.6541L29.4649 50.283C25.657 53.4838 20.1286 53.4838 16.3206 50.283L15.5722 49.6541L14.8238 50.283C14.3323 50.696 13.812 51.0546 13.2707 51.3611C13.7297 46.1895 15.0449 41.1933 17.1408 36.5434H101.86C103.956 41.1949 105.273 46.1929 105.732 51.3663C105.187 51.0587 104.663 50.6983 104.169 50.2828L103.419 49.6541ZM91.7664 22.2477C94.0416 24.4411 96.0643 26.8323 97.8199 29.3829H91.7664V22.2477ZM89.4445 29.3829H83.9906V16.1924C85.8912 17.3723 87.7137 18.6954 89.4445 20.1551V29.3829ZM81.669 29.3829H76.2151V12.3273C78.0842 13.0456 79.9059 13.8841 81.669 14.8416V29.3829ZM73.8932 29.3829H68.4375V10.0948C70.2886 10.454 72.1097 10.9255 73.8932 11.5037V29.3829ZM66.1154 29.3829H60.661V9.25272C62.4978 9.29771 64.3185 9.44967 66.1154 9.70498V29.3829ZM58.3393 29.3829H52.8849V9.70472C54.6815 9.44967 56.5022 9.29745 58.3393 9.25272V29.3829ZM50.563 29.3829H45.1091V11.5014C46.8918 10.9237 48.7124 10.4527 50.563 10.0937V29.3829ZM42.7875 29.3829H37.3336V14.8393C39.0967 13.882 40.9183 13.0431 42.7875 12.3247V29.3829ZM35.0117 29.3829H29.5552V20.1538C31.2868 18.6931 33.1103 17.3695 35.0117 16.1891V29.3829ZM27.2333 29.3829H21.1793C22.935 26.8326 24.9571 24.4401 27.2333 22.2459V29.3829ZM19.6828 31.6969H99.3147C99.8154 32.5268 100.289 33.3717 100.735 34.2297H18.2648C18.7109 33.372 19.182 32.5266 19.6828 31.6969ZM108.134 52.3451C107.354 40.2065 102.091 28.9128 93.2429 20.4492C84.1253 11.7272 72.1417 6.92405 59.5 6.92405C46.8142 6.92405 34.8007 11.756 25.6722 20.5299C16.8714 28.9892 11.6433 40.2451 10.8655 52.3425C9.34746 52.7452 7.75747 52.7891 6.22295 52.478C7.80185 24.3337 31.1669 2.31376 59.5 2.31376C73.3388 2.31376 86.4575 7.56991 96.4396 17.1139C106.237 26.4813 112.021 39.0184 112.776 52.4762C111.242 52.7889 109.652 52.7464 108.134 52.3451Z" fill="#191918"/>
</svg>
